HIERARCHY
ROOT Hips
{
	OFFSET 0.000000 83.214638 0.000000
	CHANNELS 6 Xposition Yposition Zposition Xrotation Yrotation Zrotation
	JOINT Pelvis
	{
		OFFSET 0.000000 0.000000 0.000000
		CHANNELS 3 Xrotation Yrotation Zrotation
		JOINT LeftUpLeg
		{
			OFFSET 8.479700 -4.795502 -0.379100
			CHANNELS 3 Xrotation Yrotation Zrotation
			JOINT LeftLeg
			{
				OFFSET 0.024144 -32.555107 0.112900
				CHANNELS 3 Xrotation Yrotation Zrotation
				JOINT LeftFoot
				{
					OFFSET -0.024144 -32.638630 -3.012600
					CHANNELS 3 Xrotation Yrotation Zrotation
					JOINT LeftToeBase
					{
						OFFSET 0.970200 -13.225400 11.864200
						CHANNELS 3 Xrotation Yrotation Zrotation
						End Site
						{
							OFFSET 0.000000 12.319262 0.000000
						}
					}
					JOINT LFootTongue
					{
						OFFSET 1.142400 -1.059800 6.665200
						CHANNELS 3 Xrotation Yrotation Zrotation
						End Site
						{
							OFFSET 0.000000 12.319262 0.000000
						}
					}
				}
				JOINT LeftPantLeg
				{
					OFFSET 0.918482 -16.533964 -2.284700
					CHANNELS 3 Xrotation Yrotation Zrotation
					End Site
					{
						OFFSET 0.350399 24.744368 0.000000
					}
				}
			}
		}
		JOINT RightUpLeg
		{
			OFFSET -8.479700 -4.795502 -0.379100
			CHANNELS 3 Xrotation Yrotation Zrotation
			JOINT RightLeg
			{
				OFFSET -0.023144 -32.555092 0.112900
				CHANNELS 3 Xrotation Yrotation Zrotation
				JOINT RightFoot
				{
					OFFSET 0.023144 -32.638641 -3.012700
					CHANNELS 3 Xrotation Yrotation Zrotation
					JOINT RightToeBase
					{
						OFFSET -0.970200 -13.225400 11.864200
						CHANNELS 3 Xrotation Yrotation Zrotation
						End Site
						{
							OFFSET 0.000000 12.319244 0.000000
						}
					}
					JOINT RFootTongue
					{
						OFFSET -1.142200 -1.059800 6.665200
						CHANNELS 3 Xrotation Yrotation Zrotation
						End Site
						{
							OFFSET 0.000000 12.319243 0.000000
						}
					}
				}
				JOINT RightPantLeg
				{
					OFFSET -0.919482 -16.533978 -2.284800
					CHANNELS 3 Xrotation Yrotation Zrotation
					End Site
					{
						OFFSET -0.350400 24.744419 0.000000
					}
				}
			}
		}
	}
	JOINT Spine
	{
		OFFSET 0.000000 7.722000 1.166200
		CHANNELS 3 Xrotation Yrotation Zrotation
		JOINT Spine1
		{
			OFFSET 0.000000 12.024101 0.248800
			CHANNELS 3 Xrotation Yrotation Zrotation
			JOINT Spine2
			{
				OFFSET 0.000000 11.502998 -0.491200
				CHANNELS 3 Xrotation Yrotation Zrotation
				JOINT Neck
				{
					OFFSET 0.000000 18.430702 -3.123100
					CHANNELS 3 Xrotation Yrotation Zrotation
					JOINT Head
					{
						OFFSET 0.000000 9.051102 1.034000
						CHANNELS 3 Xrotation Yrotation Zrotation
						JOINT HairB
						{
							OFFSET 0.208400 24.786102 24.822300
							CHANNELS 3 Xrotation Yrotation Zrotation
							End Site
							{
								OFFSET 0.000000 32.263779 0.000000
							}
						}
						JOINT HairA
						{
							OFFSET -7.081100 24.428299 23.196600
							CHANNELS 3 Xrotation Yrotation Zrotation
							End Site
							{
								OFFSET 0.000000 32.263779 0.000000
							}
						}
						JOINT Hat
						{
							OFFSET 16.728800 15.048294 -15.439601
							CHANNELS 3 Xrotation Yrotation Zrotation
							End Site
							{
								OFFSET 0.000000 32.263779 0.000000
							}
						}
					}
				}
				JOINT LeftShoulder
				{
					OFFSET 6.197800 13.665199 -4.064700
					CHANNELS 3 Xrotation Yrotation Zrotation
					JOINT LeftArm
					{
						OFFSET 7.778100 -0.187103 -1.709300
						CHANNELS 3 Xrotation Yrotation Zrotation
						JOINT LeftForeArm
						{
							OFFSET 22.049376 0.000000 0.000000
							CHANNELS 3 Xrotation Yrotation Zrotation
							JOINT LeftHand
							{
								OFFSET 23.009392 0.000000 0.000000
								CHANNELS 3 Xrotation Yrotation Zrotation
								JOINT LeftHandThumb1
								{
									OFFSET 3.507191 -2.063065 3.133727
									CHANNELS 3 Xrotation Yrotation Zrotation
									JOINT LeftHandThumb2
									{
										OFFSET 3.101337 -1.790558 1.790558
										CHANNELS 3 Xrotation Yrotation Zrotation
										JOINT LeftHandThumb3
										{
											OFFSET 3.058640 -1.765907 1.765906
											CHANNELS 3 Xrotation Yrotation Zrotation
											End Site
											{
												OFFSET -0.415260 3.926476 -0.049563
											}
										}
									}
								}
								JOINT LeftHandIndex1
								{
									OFFSET 11.334419 -0.901459 3.706815
									CHANNELS 3 Xrotation Yrotation Zrotation
									JOINT LeftHandIndex2
									{
										OFFSET 3.283112 0.000000 0.000000
										CHANNELS 3 Xrotation Yrotation Zrotation
										JOINT LeftHandIndex3
										{
											OFFSET 3.323853 0.000000 0.000000
											CHANNELS 3 Xrotation Yrotation Zrotation
											End Site
											{
												OFFSET -1.135597 3.097809 0.402452
											}
										}
									}
								}
								JOINT LeftHandMiddle1
								{
									OFFSET 11.335861 0.000000 0.000000
									CHANNELS 3 Xrotation Yrotation Zrotation
									JOINT LeftHandMiddle2
									{
										OFFSET 3.410492 0.000000 0.000000
										CHANNELS 3 Xrotation Yrotation Zrotation
										JOINT LeftHandMiddle3
										{
											OFFSET 3.312172 0.000000 0.000000
											CHANNELS 3 Xrotation Yrotation Zrotation
											End Site
											{
												OFFSET -1.150200 3.080154 0.400270
											}
										}
									}
								}
								JOINT LeftHandRing1
								{
									OFFSET 11.514786 -0.013176 -3.003090
									CHANNELS 3 Xrotation Yrotation Zrotation
									JOINT LeftHandRing2
									{
										OFFSET 3.053307 0.000000 0.000000
										CHANNELS 3 Xrotation Yrotation Zrotation
										JOINT LeftHandRing3
										{
											OFFSET 3.295807 0.000000 0.000000
											CHANNELS 3 Xrotation Yrotation Zrotation
											End Site
											{
												OFFSET -1.281006 3.013344 0.375733
											}
										}
									}
								}
								JOINT LeftHandPinky1
								{
									OFFSET 10.518692 -0.960396 -5.730441
									CHANNELS 3 Xrotation Yrotation Zrotation
									JOINT LeftHandPinky2
									{
										OFFSET 2.861649 0.000000 0.000000
										CHANNELS 3 Xrotation Yrotation Zrotation
										JOINT LeftHandPinky3
										{
											OFFSET 2.863380 0.000000 0.000000
											CHANNELS 3 Xrotation Yrotation Zrotation
											End Site
											{
												OFFSET -0.843597 2.711159 0.369971
											}
										}
									}
								}
							}
							JOINT LSleeve
							{
								OFFSET 6.676277 -0.344902 -1.011730
								CHANNELS 3 Xrotation Yrotation Zrotation
								End Site
								{
									OFFSET 0.000000 14.885353 0.000000
								}
							}
						}
					}
				}
				JOINT RightShoulder
				{
					OFFSET -6.197800 13.665199 -4.064700
					CHANNELS 3 Xrotation Yrotation Zrotation
					JOINT RightArm
					{
						OFFSET -7.778100 -0.187103 -1.709300
						CHANNELS 3 Xrotation Yrotation Zrotation
						JOINT RightForeArm
						{
							OFFSET -22.049376 0.000000 0.000000
							CHANNELS 3 Xrotation Yrotation Zrotation
							JOINT RightHand
							{
								OFFSET -23.009392 0.000000 0.000000
								CHANNELS 3 Xrotation Yrotation Zrotation
								JOINT RightHandThumb1
								{
									OFFSET -3.507191 -2.063065 3.133727
									CHANNELS 3 Xrotation Yrotation Zrotation
									JOINT RightHandThumb2
									{
										OFFSET -3.101337 -1.790558 1.790558
										CHANNELS 3 Xrotation Yrotation Zrotation
										JOINT RightHandThumb3
										{
											OFFSET -3.058640 -1.765907 1.765906
											CHANNELS 3 Xrotation Yrotation Zrotation
											End Site
											{
												OFFSET 0.415260 3.926476 -0.049563
											}
										}
									}
								}
								JOINT RightHandIndex1
								{
									OFFSET -11.334419 -0.901459 3.706815
									CHANNELS 3 Xrotation Yrotation Zrotation
									JOINT RightHandIndex2
									{
										OFFSET -3.283112 0.000000 0.000000
										CHANNELS 3 Xrotation Yrotation Zrotation
										JOINT RightHandIndex3
										{
											OFFSET -3.323853 0.000000 0.000000
											CHANNELS 3 Xrotation Yrotation Zrotation
											End Site
											{
												OFFSET 1.135597 3.097809 0.402452
											}
										}
									}
								}
								JOINT RightHandMiddle1
								{
									OFFSET -11.335861 0.000000 0.000000
									CHANNELS 3 Xrotation Yrotation Zrotation
									JOINT RightHandMiddle2
									{
										OFFSET -3.410492 0.000000 0.000000
										CHANNELS 3 Xrotation Yrotation Zrotation
										JOINT RightHandMiddle3
										{
											OFFSET -3.312172 0.000000 0.000000
											CHANNELS 3 Xrotation Yrotation Zrotation
											End Site
											{
												OFFSET 1.150200 3.080154 0.400270
											}
										}
									}
								}
								JOINT RightHandRing1
								{
									OFFSET -11.514786 -0.013176 -3.003090
									CHANNELS 3 Xrotation Yrotation Zrotation
									JOINT RightHandRing2
									{
										OFFSET -3.053307 0.000000 0.000000
										CHANNELS 3 Xrotation Yrotation Zrotation
										JOINT RightHandRing3
										{
											OFFSET -3.295807 0.000000 0.000000
											CHANNELS 3 Xrotation Yrotation Zrotation
											End Site
											{
												OFFSET 1.281006 3.013344 0.375733
											}
										}
									}
								}
								JOINT RightHandPinky1
								{
									OFFSET -10.518692 -0.960396 -5.730441
									CHANNELS 3 Xrotation Yrotation Zrotation
									JOINT RightHandPinky2
									{
										OFFSET -2.861649 0.000000 0.000000
										CHANNELS 3 Xrotation Yrotation Zrotation
										JOINT RightHandPinky3
										{
											OFFSET -2.863380 0.000000 0.000000
											CHANNELS 3 Xrotation Yrotation Zrotation
											End Site
											{
												OFFSET 0.843597 2.711159 0.369971
											}
										}
									}
								}
							}
							JOINT RSleeve
							{
								OFFSET -6.676277 -0.344902 -1.011730
								CHANNELS 3 Xrotation Yrotation Zrotation
								End Site
								{
									OFFSET 0.000000 14.885353 0.000000
								}
							}
						}
					}
				}
				JOINT Backpack
				{
					OFFSET 0.000000 -2.471497 36.677502
					CHANNELS 3 Xrotation Yrotation Zrotation
					End Site
					{
						OFFSET 0.000000 20.427315 0.000000
					}
				}
				JOINT Hood
				{
					OFFSET 0.000000 18.754097 -10.431000
					CHANNELS 3 Xrotation Yrotation Zrotation
					JOINT Hood1
					{
						OFFSET 0.000000 -5.011002 -7.685901
						CHANNELS 3 Xrotation Yrotation Zrotation
						End Site
						{
							OFFSET 0.000000 9.175140 0.000000
						}
					}
				}
				JOINT LHoodieString
				{
					OFFSET 5.250500 16.397697 3.089900
					CHANNELS 3 Xrotation Yrotation Zrotation
					JOINT LHoodieString1
					{
						OFFSET 0.257700 -6.364304 3.694600
						CHANNELS 3 Xrotation Yrotation Zrotation
						JOINT LHoodieString2
						{
							OFFSET 0.000000 -9.643799 2.679100
							CHANNELS 3 Xrotation Yrotation Zrotation
							End Site
							{
								OFFSET 0.000000 10.009018 0.000000
							}
						}
					}
				}
				JOINT RHoodieString
				{
					OFFSET -5.250500 16.397697 3.089900
					CHANNELS 3 Xrotation Yrotation Zrotation
					JOINT RHoodieString1
					{
						OFFSET -0.257700 -6.364304 3.694600
						CHANNELS 3 Xrotation Yrotation Zrotation
						JOINT RHoodieString2
						{
							OFFSET 0.000000 -9.643799 2.679100
							CHANNELS 3 Xrotation Yrotation Zrotation
							End Site
							{
								OFFSET 0.000000 10.009018 0.000000
							}
						}
					}
				}
			}
			JOINT LBackpack_Strap
			{
				OFFSET 15.223200 -7.719803 -6.610900
				CHANNELS 3 Xrotation Yrotation Zrotation
				End Site
				{
					OFFSET 0.000000 16.040596 0.000000
				}
			}
			JOINT RBackpack_Strap
			{
				OFFSET -15.223000 -7.719803 -6.610900
				CHANNELS 3 Xrotation Yrotation Zrotation
				End Site
				{
					OFFSET 0.000000 16.040596 0.000000
				}
			}
		}
	}
	JOINT BoyFacialAnim_Joint
	{
		OFFSET 1.000000 -82.208099 -1.550900
		CHANNELS 3 Xrotation Yrotation Zrotation
		End Site
		{
			OFFSET 0.000000 30.012791 0.000000
		}
	}
}
MOTION
Frames: 4
Frame Time: 0.016667
2.939264 157.241180 -24.100658 5.211467 -7.130880 0.488184 -0.000000 -0.000000 -0.000000 -93.392209 13.696261 23.189694 96.757635 2.519558 5.582170 -2.935764 9.121789 -28.041161 -0.000000 0.000001 0.000001 -0.000000 0.000001 0.000001 0.000001 0.000002 0.000000 -105.680088 8.409823 -11.293229 105.954587 -6.875644 -1.953025 6.414261 -9.057265 34.521081 -0.000000 -0.000003 -0.000000 -0.000000 -0.000003 -0.000000 0.000000 0.000003 -0.000000 8.443133 -0.988546 -0.819483 16.887417 -1.177193 -1.114028 16.887424 -1.177190 -1.114030 -26.807210 6.493741 -1.451445 4.682590 -9.389105 9.652373 -0.000001 -0.000001 -0.000000 -0.000001 -0.000001 -0.000000 -0.000001 -0.000001 -0.000000 -0.612880 -14.977172 27.292794 -67.334757 -8.203792 -15.014252 16.808238 -68.480248 48.052990 33.848888 9.957016 32.839628 -11.360190 -10.015417 28.397697 19.621141 23.755261 -10.341712 -0.000001 0.000001 0.000002 -7.847198 -3.444985 -67.091241 -4.893165 2.726507 -36.316440 -0.000001 -0.000000 -0.000000 -10.129401 -3.872136 -67.774260 -1.765727 1.717444 -28.158382 0.000001 -0.000001 -0.000000 -15.176965 7.293305 -70.201722 7.766213 -0.421185 -31.520080 -0.000000 -0.000001 -0.000002 -16.483434 5.440132 -74.872704 8.338721 -0.185860 -18.883047 0.000001 0.000000 -0.000002 0.000001 -0.000001 0.000003 6.218777 17.756043 -13.894191 -82.947962 43.284514 24.548745 -18.192470 53.742456 -21.031659 34.793612 6.403812 -40.032350 15.333549 1.500900 -10.491465 -10.396764 -3.067646 -10.223941 -0.000000 0.000001 -0.000003 0.920253 3.497173 64.452179 1.730966 9.565836 38.865460 -0.000000 -0.000002 0.000003 -6.652405 -3.924336 64.485715 9.406003 5.988795 38.253615 -0.000000 0.000000 0.000002 -5.546330 1.390155 64.784809 0.232704 -1.792510 39.151751 -0.000001 0.000003 0.000001 -17.806377 -16.572305 61.043306 25.326738 3.860138 27.748239 0.000004 -0.000001 0.000000 0.000002 0.000001 -0.000003 0.000000 0.000000 -0.000000 0.000000 0.000000 -0.000000 0.000000 0.000000 -0.000000 0.000000 0.000000 -0.000000 0.000000 0.000000 -0.000000 -0.000001 0.000000 -0.000000 0.000000 0.000000 -0.000000 0.000000 0.000000 -0.000000 -0.000001 0.000000 -0.000000 -0.000000 -0.000000 -0.000000 -0.000000 -0.000000 -0.000000 -0.000000 -0.000000 -0.000000 
3.131818 157.095337 -25.113625 3.845316 -7.421041 0.437884 -0.000000 0.000000 0.000000 -96.085715 12.181478 23.384829 96.440775 0.980153 4.006263 -3.106702 9.192335 -27.953464 0.000001 0.000000 0.000001 0.000001 0.000000 0.000002 -0.000001 -0.000003 -0.000000 -106.311785 5.949301 -11.946091 102.314164 -4.372346 -2.488788 5.142265 -8.976644 33.554496 0.000001 0.000003 -0.000000 0.000001 0.000003 -0.000000 0.000000 -0.000002 -0.000000 9.096307 -0.735611 -0.730433 18.191671 -0.858378 -1.119250 18.191659 -0.858374 -1.119251 -27.539473 7.278516 -1.689584 7.619248 -10.946531 10.643137 -0.000000 0.000001 -0.000000 -0.000000 0.000001 -0.000000 -0.000000 0.000001 -0.000000 0.325176 -15.904567 27.503502 -69.510589 -10.660070 -14.371488 10.803157 -66.204245 45.525530 35.794686 7.408747 31.709802 -11.360176 -10.015403 28.397710 19.621119 23.755241 -10.341706 -0.000000 -0.000001 -0.000000 -7.847199 -3.444970 -67.091241 -4.893194 2.726531 -36.316430 -0.000000 0.000000 0.000002 -10.129384 -3.872151 -67.774246 -1.765758 1.717315 -28.158387 -0.000000 0.000000 -0.000002 -15.176925 7.293289 -70.201729 7.766216 -0.421189 -31.520066 0.000000 -0.000003 -0.000001 -16.483407 5.440052 -74.872698 8.338650 -0.185782 -18.883060 -0.000000 -0.000002 -0.000001 0.000002 -0.000001 0.000004 6.708631 18.898922 -14.296312 -85.364107 45.042424 22.649413 -20.331791 51.306216 -20.083201 36.853054 8.003261 -39.095084 15.333563 1.500916 -10.491461 -10.396764 -3.067645 -10.223945 -0.000000 0.000001 -0.000000 0.920277 3.497205 64.452158 1.731015 9.565898 38.865457 -0.000003 -0.000001 0.000002 -6.652425 -3.924320 64.485701 9.406005 5.988772 38.253649 0.000002 -0.000001 -0.000000 -5.546343 1.390171 64.784761 0.232788 -1.792449 39.151751 -0.000001 -0.000001 -0.000001 -17.806358 -16.572298 61.043293 25.326908 3.860245 27.748229 -0.000000 -0.000002 0.000002 -0.000003 -0.000003 0.000003 0.000003 0.000001 -0.000000 0.000003 0.000001 -0.000000 0.000003 0.000001 -0.000000 0.000003 0.000001 -0.000000 0.000003 0.000001 -0.000000 0.000003 0.000000 0.000000 0.000003 0.000001 -0.000000 0.000003 0.000001 -0.000000 0.000003 0.000000 0.000000 -0.000001 -0.000000 -0.000000 -0.000001 -0.000000 -0.000000 -0.000000 0.000000 0.000000 
3.278997 156.919968 -26.077887 2.542864 -7.599433 0.445038 -0.000000 -0.000000 0.000000 -97.694081 11.396522 23.046636 94.195351 -0.639950 2.879448 -2.673423 9.023751 -27.319616 -0.000000 0.000000 0.000000 -0.000000 0.000000 0.000000 -0.000000 -0.000000 -0.000001 -105.684289 3.158180 -12.614011 97.363957 -1.509102 -2.707566 3.231412 -8.837714 31.274432 -0.000000 -0.000002 -0.000001 -0.000000 -0.000002 -0.000001 -0.000001 -0.000000 -0.000000 9.691427 -0.471090 -0.648746 19.380863 -0.593882 -1.137937 19.380867 -0.593885 -1.137935 -27.906160 8.033922 -1.876917 10.220144 -12.179004 11.188147 0.000002 -0.000000 0.000000 0.000002 -0.000000 0.000000 0.000002 -0.000000 0.000000 1.416563 -16.917217 27.896835 -71.463907 -13.211100 -13.429062 5.023468 -63.827264 43.312425 37.747430 4.815438 30.664018 -11.360187 -10.015412 28.397693 19.621119 23.755254 -10.341707 -0.000000 -0.000003 -0.000003 -7.847196 -3.444975 -67.091241 -4.893214 2.726569 -36.316430 0.000001 0.000001 -0.000002 -10.129364 -3.872170 -67.774246 -1.765773 1.717154 -28.158368 -0.000001 0.000000 -0.000002 -15.176935 7.293250 -70.201736 7.766209 -0.421206 -31.520077 0.000000 -0.000001 -0.000001 -16.483386 5.439966 -74.872704 8.338585 -0.185680 -18.883072 0.000001 0.000000 -0.000000 -0.000003 0.000001 0.000002 7.401558 20.145759 -15.002639 -85.334806 46.412238 18.300099 -22.943297 49.160232 -18.542908 37.921654 8.917823 -38.636768 15.333558 1.500896 -10.491460 -10.396761 -3.067644 -10.223947 0.000001 0.000000 -0.000001 0.920261 3.497213 64.452179 1.731068 9.565931 38.865453 0.000001 -0.000002 0.000002 -6.652422 -3.924327 64.485687 9.406019 5.988771 38.253622 0.000001 -0.000002 -0.000000 -5.546340 1.390173 64.784761 0.232874 -1.792378 39.151744 -0.000001 -0.000002 0.000000 -17.806353 -16.572298 61.043306 25.327055 3.860325 27.748222 -0.000002 0.000001 0.000001 0.000001 0.000000 0.000001 0.000001 -0.000000 -0.000000 0.000001 -0.000000 -0.000000 0.000001 -0.000000 -0.000000 0.000001 -0.000000 -0.000000 0.000001 -0.000000 -0.000000 -0.000000 0.000000 -0.000000 0.000001 -0.000000 -0.000000 0.000001 -0.000000 -0.000000 -0.000000 0.000000 -0.000000 0.000003 -0.000000 -0.000000 0.000003 -0.000000 -0.000000 -0.000000 -0.000000 0.000000 
3.362662 156.706665 -26.964575 1.364134 -7.697135 0.505484 -0.000000 0.000000 0.000000 -97.928329 11.350042 22.257604 90.188318 -2.463936 2.144284 -2.062458 8.728012 -25.911827 -0.000000 -0.000001 0.000004 -0.000000 -0.000001 0.000005 0.000000 0.000001 -0.000001 -103.785558 0.142908 -13.191378 91.165226 1.504447 -2.592527 1.026707 -8.530314 27.774416 0.000003 0.000001 -0.000001 0.000003 0.000001 -0.000001 -0.000000 -0.000001 0.000000 10.216539 -0.228505 -0.575621 20.431042 -0.404105 -1.150168 20.431034 -0.404108 -1.150167 -27.891901 8.715287 -1.992548 12.324972 -12.999074 11.298011 0.000004 -0.000001 0.000001 0.000004 -0.000001 0.000001 0.000004 -0.000001 0.000001 2.554323 -17.796341 28.564114 -72.885085 -15.245547 -11.944090 -0.383340 -61.659779 41.125068 39.226470 2.594674 29.927543 -11.360180 -10.015415 28.397710 19.621129 23.755266 -10.341708 -0.000000 -0.000001 0.000001 -7.847206 -3.444967 -67.091241 -4.893235 2.726607 -36.316423 0.000000 -0.000000 -0.000000 -10.129358 -3.872203 -67.774246 -1.765798 1.717023 -28.158360 -0.000000 0.000001 -0.000003 -15.176914 7.293209 -70.201722 7.766209 -0.421209 -31.520080 0.000001 -0.000001 0.000001 -16.483357 5.439884 -74.872704 8.338514 -0.185616 -18.883074 0.000001 0.000001 0.000002 0.000000 0.000001 -0.000000 8.191198 21.269078 -15.938335 -83.291322 47.315859 12.192934 -25.736547 47.219645 -16.682266 38.042132 9.218876 -38.545220 15.333558 1.500900 -10.491457 -10.396762 -3.067646 -10.223944 0.000000 0.000001 -0.000002 0.920276 3.497227 64.452158 1.731123 9.565974 38.865426 -0.000001 0.000001 0.000004 -6.652407 -3.924336 64.485701 9.406008 5.988777 38.253642 0.000002 -0.000001 0.000001 -5.546343 1.390170 64.784809 0.232953 -1.792313 39.151764 -0.000003 -0.000001 -0.000001 -17.806371 -16.572305 61.043299 25.327219 3.860422 27.748212 0.000000 -0.000001 0.000002 -0.000000 0.000001 -0.000001 -0.000000 0.000000 0.000000 -0.000000 0.000000 0.000000 -0.000000 0.000000 0.000000 -0.000000 0.000000 0.000000 -0.000000 0.000000 -0.000000 0.000001 0.000000 -0.000000 -0.000000 0.000000 0.000000 -0.000000 0.000000 -0.000000 0.000001 0.000000 -0.000000 0.000001 -0.000000 -0.000000 0.000001 -0.000000 -0.000000 -0.000000 0.000000 0.000000 
